<?xml version="1.0" encoding="utf-8"?>
<!-- Generator: Adobe Illustrator 21.0.0, SVG Export Plug-In . SVG Version: 6.00 Build 0)  -->
<svg version="1.1" id="Layer_1" xmlns="http://www.w3.org/2000/svg" xmlns:xlink="http://www.w3.org/1999/xlink" x="0px" y="0px"
	 viewBox="0 0 92.6 119.6" style="enable-background:new 0 0 92.6 119.6;" xml:space="preserve">
<style type="text/css">
	.st1{fill:#ff5588;}
</style>
<g>
	<polygon class="st1" points="20.9,37.9 26.4,43.5 31.7,38.1 19.8,26.2 0,46 25.8,71.8 31.1,66.5 11.8,47.2 	"/>
	<polygon class="st1" points="10.5,74.4 17.7,67.1 12.5,61.9 0.1,74.4 18.7,93 44.9,66.5 39.6,61.2 18.6,82.4 	"/>
	<polygon class="st1" points="35.7,52.7 53.7,70.8 59,65.5 41,47.4 	"/>
	<polygon class="st1" points="55.3,85.1 72.2,68.2 67.1,63.1 50.3,80.1 	"/>
	<polygon class="st1" points="26.7,56.5 43.6,39.6 38.5,34.5 21.7,51.5 	"/>
	<polygon class="st1" points="81.7,46.2 75.7,52.2 80.9,57.4 92.1,46.1 73.5,27.5 49.7,51.6 55,56.9 73.7,38.1 	"/>
	<polygon class="st1" points="39.6,89 44.6,94 37.4,101.3 45.2,109 54.1,100.1 34.8,80.8 40.1,75.5 64.7,100.1 45.3,119.6 
		27.2,101.5 	"/>
	<polygon class="st1" points="74,80.5 68.5,74.9 63.2,80.3 73.9,91 92.6,72.3 67.9,47.7 62.6,53 81.9,72.3 	"/>
	<polygon class="st1" points="52.9,29.4 47.9,24.4 53.9,18.4 46.1,10.6 38.5,18.2 58.9,38.6 53.6,44 27.8,18.2 46,0 64.1,18.1 	"/>
</g>
</svg>
